<svg width="1440" height="196" fill="none" xmlns="http://www.w3.org/2000/svg"><path opacity=".35" d="M0 1c89.696 71.763 169.666 131.68 262.064 136.487 92.398 4.807 130.221-40.002 193.981-40.002 63.76 0 94.559 20.602 115.092 40.002C591.67 156.887 632.736 195 710.004 195s115.092-40.517 134.544-57.513C864 120.49 915.872 85.124 988.278 85.124c72.402 0 94.022 19.844 162.642 17.34 68.62-2.505 92.94-32.963 164.26-32.963 71.33 0 58.36 23.349 124.82 23.349" stroke="url(#a)" stroke-width="2" stroke-linecap="round" stroke-linejoin="round"/><defs><linearGradient id="a" x1="0" y1="1" x2="1440" y2="1" gradientUnits="userSpaceOnUse"><stop stop-color="#FF59F8"/><stop offset=".198" stop-color="#AE72FF"/><stop offset=".406" stop-color="#70C9E8"/><stop offset=".62" stop-color="#01AB9D"/><stop offset=".825" stop-color="#FE0"/></linearGradient></defs></svg>